<?xml version="1.0" standalone="no"?>
<!DOCTYPE svg PUBLIC "-//W3C//DTD SVG 20010904//EN"
 "http://www.w3.org/TR/2001/REC-SVG-20010904/DTD/svg10.dtd">
<svg version="1.0" xmlns="http://www.w3.org/2000/svg"
 width="1024.000000pt" height="1024.000000pt" viewBox="0 0 1024.000000 1024.000000"
 preserveAspectRatio="xMidYMid meet">
<metadata>
Created by potrace 1.11, written by Peter Selinger 2001-2013
</metadata>
<g transform="translate(0.000000,1024.000000) scale(0.100000,-0.100000)"
fill="#000000" stroke="none">
<path d="M20 5120 l0 -5120 5110 0 5110 0 0 5120 0 5120 -5110 0 -5110 0 0
-5120z m5650 3070 c363 -31 711 -125 1012 -276 283 -141 557 -360 629 -501 31
-62 34 -74 34 -157 0 -77 -4 -98 -25 -139 -43 -85 -119 -137 -201 -137 -60 0
-154 49 -289 151 -108 81 -288 198 -408 264 -195 107 -386 174 -622 216 -148
26 -530 38 -688 20 -629 -71 -1075 -342 -1366 -832 -220 -371 -336 -884 -336
-1479 1 -771 185 -1368 542 -1757 153 -168 274 -260 454 -351 175 -88 323
-138 519 -176 488 -96 1213 -39 1743 135 l122 41 0 853 0 854 -622 3 c-688 4
-665 2 -749 69 -110 87 -119 260 -19 360 88 88 39 84 975 84 l820 0 57 -28
c58 -28 97 -70 126 -135 16 -34 17 -122 20 -1042 3 -1046 -1 -1182 -38 -1286
-24 -69 -83 -134 -153 -170 -62 -32 -250 -104 -357 -137 -624 -191 -1449 -251
-2035 -148 -276 49 -553 140 -762 251 -655 349 -1075 935 -1247 1740 -126 592
-106 1349 51 1894 99 346 266 677 468 931 520 653 1353 967 2345 885z"/>
</g>
</svg>
